<?xml version="1.0" encoding="utf-8"?>
<svg xmlns="http://www.w3.org/2000/svg" xmlns:xlink="http://www.w3.org/1999/xlink">
    <!-- Sosyal Medya İkonları -->
    <symbol id="icon-instagram" viewBox="0 0 24 24">
        <path d="M31.9765 15.0561C31.9203 13.7809 31.7141 12.9042 31.4187 12.1445C31.1139 11.3381 30.6451 10.6162 30.0308 10.016C29.4307 9.40652 28.704 8.93292 27.9069 8.63294C27.1429 8.33753 26.2708 8.13131 24.9955 8.07509C23.7108 8.0141 23.303 8 20.0445 8C16.7861 8 16.3782 8.0141 15.0982 8.07033C13.823 8.12655 12.9463 8.33295 12.1868 8.62817C11.3803 8.93292 10.6583 9.40176 10.0582 10.016C9.4487 10.6162 8.97528 11.3429 8.67511 12.1399C8.3797 12.9042 8.17349 13.7761 8.11726 15.0513C8.05628 16.336 8.04218 16.7439 8.04218 20.0023C8.04218 23.2608 8.05628 23.6686 8.1125 24.9486C8.16873 26.2238 8.37513 27.1005 8.67053 27.8602C8.97528 28.6666 9.4487 29.3885 10.0582 29.9887C10.6583 30.5982 11.385 31.0718 12.1821 31.3718C12.9463 31.6672 13.8183 31.8734 15.0937 31.9296C16.3734 31.986 16.7815 31.9999 20.0399 31.9999C23.2984 31.9999 23.7062 31.986 24.9862 31.9296C26.2614 31.8734 27.1381 31.6672 27.8976 31.3718C29.5105 30.7482 30.7857 29.4729 31.4093 27.8602C31.7046 27.096 31.911 26.2238 31.9672 24.9486C32.0234 23.6686 32.0375 23.2608 32.0375 20.0023C32.0375 16.7439 32.0327 16.336 31.9765 15.0561Z" fill="#F4F4FD"/>
    </symbol>

    <symbol id="icon-twitter" viewBox="0 0 24 24">
        <path d="M24 4.55705C23.117 4.94905 22.168 5.21305 21.172 5.33205C22.189 4.72305 22.97 3.75805 23.337 2.60805C22.386 3.17205 21.332 3.58205 20.21 3.80305C19.313 2.84605 18.032 2.24805 16.616 2.24805C13.437 2.24805 11.101 5.21405 11.819 8.29305C7.728 8.08805 4.1 6.12805 1.671 3.14905C0.381 5.36205 1.002 8.25705 3.194 9.72305C2.388 9.69705 1.628 9.47605 0.965 9.10705C0.911 11.388 2.546 13.522 4.914 13.997C4.221 14.185 3.462 14.229 2.69 14.081C3.316 16.037 5.134 17.46 7.29 17.5C5.22 19.123 2.612 19.848 0 19.54C2.179 20.937 4.768 21.752 7.548 21.752C16.69 21.752 21.855 14.031 21.543 7.10605C22.505 6.41105 23.34 5.54405 24 4.55705Z" fill="#F4F4FD"/>
    </symbol>

    <symbol id="icon-facebook" viewBox="0 0 24 24">
        <path d="M15.997 3.985H18.188V0.169C17.81 0.117 16.51 0 14.996 0C11.837 0 9.673 1.987 9.673 5.639V9H6.187V13.266H9.673V24H13.947V13.267H17.292L17.823 9.001H13.946V6.062C13.947 4.829 14.279 3.985 15.997 3.985Z" fill="#F4F4FD"/>
    </symbol>

    <symbol id="icon-linkedin" viewBox="0 0 24 24">
        <path d="M23.994 24V23.999H24V15.197C24 10.891 23.073 7.574 18.039 7.574C15.619 7.574 13.995 8.902 13.332 10.161H13.262V7.976H8.489V23.999H13.459V16.065C13.459 13.976 13.855 11.956 16.442 11.956C18.991 11.956 19.029 14.34 19.029 16.199V24H23.994Z" fill="#F4F4FD"/>
        <path d="M0.396 7.977H5.372V24H0.396V7.977Z" fill="#F4F4FD"/>
        <path d="M2.882 0C1.291 0 0 1.291 0 2.882C0 4.473 1.291 5.791 2.882 5.791C4.473 5.791 5.764 4.473 5.764 2.882C5.763 1.291 4.472 0 2.882 0V0Z" fill="#F4F4FD"/>
    </symbol>

    <!-- Modal ve Footer İkonları -->
    <symbol id="icon-close" viewBox="0 0 8 8">
        <path d="M8 0.8L7.2 0L4 3.2L0.8 0L0 0.8L3.2 4L0 7.2L0.8 8L4 4.8L7.2 8L8 7.2L4.8 4L8 0.8Z"/>
    </symbol>

    <symbol id="icon-person" viewBox="0 0 18 18">
        <path d="M9 9C10.6575 9 12 7.6575 12 6C12 4.3425 10.6575 3 9 3C7.3425 3 6 4.3425 6 6C6 7.6575 7.3425 9 9 9ZM9 10.5C6.9975 10.5 3 11.505 3 13.5V14.25C3 14.6625 3.3375 15 3.75 15H14.25C14.6625 15 15 14.6625 15 14.25V13.5C15 11.505 11.0025 10.5 9 10.5Z"/>
    </symbol>

    <symbol id="icon-phone" viewBox="0 0 18 18">
        <path d="M14.7263 11.1263L12.8388 10.9612C12.3796 10.9162 11.9363 11.0788 11.6138 11.4013L10.1863 12.8288C7.78875 11.6113 5.89125 9.72125 4.67375 7.31375L6.10875 5.87875C6.43125 5.55625 6.59375 5.11291 6.54875 4.65375L6.38375 2.77875C6.30375 2.02125 5.66625 1.4375 4.9013 1.4375H3.45375C2.61375 1.4375 1.91625 2.135 1.96125 2.975C2.25375 9.37375 7.38875 14.5013 13.7799 14.7938C14.6199 14.8388 15.3174 14.1413 15.3174 13.3013V11.8538C15.3249 11.1037 14.7487 10.4662 14.7263 11.1263Z"/>
    </symbol>

    <symbol id="icon-email" viewBox="0 0 18 18">
        <path d="M15 3H3C2.175 3 1.5075 3.675 1.5075 4.5L1.5 13.5C1.5 14.325 2.175 15 3 15H15C15.825 15 16.5 14.325 16.5 13.5V4.5C16.5 3.675 15.825 3 15 3ZM14.7 6.1875L9.3975 9.5025C9.1575 9.6525 8.8425 9.6525 8.6025 9.5025L3.3 6.1875C3.1125 6.0675 3 5.865 3 5.6475C3 5.145 3.5475 4.845 3.975 5.1075L9 8.25L14.025 5.1075C14.4525 4.845 15 5.145 15 5.6475C15 5.865 14.8875 6.0675 14.7 6.1875Z"/>
    </symbol>

    <symbol id="icon-check" viewBox="0 0 10 8">
        <path d="M8.44558 0.255056C8.61838 0.089653 8.84834 -0.00178848 9.08693 2.65108e-05C9.32551 0.0018415 9.55407 0.0967713 9.72436 0.264784C9.89466 0.432797 9.99337 0.660752 9.99968 0.900549C10.006 1.14034 9.91939 1.37323 9.75816 1.55005L4.86357 7.70436C4.7794 7.79551 4.67782 7.86865 4.5649 7.91942C4.45198 7.97018 4.33003 7.99754 4.20636 7.99984C4.08268 8.00214 3.95981 7.97935 3.8451 7.93282C3.73038 7.88629 3.62618 7.81698 3.53872 7.72903L0.292827 4.46564C0.202435 4.38096 0.129933 4.27884 0.0796475 4.16537C0.0293621 4.05191 0.00232279 3.92942 0.000143182 3.80522C-0.00203643 3.68102 0.0206883 3.55765 0.0669613 3.44248C0.113234 3.3273 0.182108 3.22267 0.269473 3.13483C0.356838 3.047 0.460905 2.97775 0.575465 2.93123C0.690026 2.88471 0.812734 2.86186 0.936267 2.86405C1.0598 2.86624 1.18163 2.89343 1.29449 2.94398C1.40734 2.99454 1.50892 3.06743 1.59315 3.15831L4.16189 5.73967L8.42227 0.28219C8.42994 0.272694 8.43813 0.263635 8.44558 0.255056Z" fill="#F4F4FD"/>
    </symbol>

    <symbol id="icon-subscribe" viewBox="0 0 24 24">
        <path d="M24 2L0 13.25L7.66994 15.6172L19.5 6.375L10.5017 16.4913L10.509 16.4936L10.5 16.4913V22L14.8013 17.8183L20.2501 19.5L24 2Z"/>
    </symbol>
</svg>
